<?xml version="1.0" standalone="no"?>
<!DOCTYPE svg PUBLIC "-//W3C//DTD SVG 20010904//EN"
 "http://www.w3.org/TR/2001/REC-SVG-20010904/DTD/svg10.dtd">
<svg version="1.0" xmlns="http://www.w3.org/2000/svg"
 width="1024.000000pt" height="1024.000000pt" viewBox="0 0 1024.000000 1024.000000"
 preserveAspectRatio="xMidYMid meet">

<g transform="translate(0.000000,1024.000000) scale(0.100000,-0.100000)"
fill="#000000" stroke="none">
<path d="M4964 9782 c-94 -92 -297 -288 -450 -437 -372 -361 -631 -613 -785
-766 l-127 -125 -534 -12 c-293 -7 -657 -12 -809 -12 -152 0 -279 -3 -283 -7
-6 -6 67 -79 434 -436 36 -35 122 -118 191 -185 l126 -122 1344 -6 c739 -3
1367 -10 1394 -15 165 -29 229 -44 338 -80 270 -90 466 -185 687 -333 376
-254 692 -616 897 -1030 126 -256 206 -536 238 -836 64 -601 -112 -1240 -479
-1740 -171 -233 -444 -492 -689 -656 -325 -217 -730 -365 -1119 -409 l-58 -6
0 -40 0 -39 -1280 0 -1280 0 -2 218 c-1 119 -2 1185 -2 2367 l-1 2150 -388 3
-387 2 0 -251 c0 -281 5 -259 -76 -344 -32 -33 -252 -287 -298 -344 -17 -20
-50 -59 -75 -87 -25 -28 -77 -88 -116 -134 -38 -45 -106 -124 -149 -174 -43
-50 -100 -115 -125 -144 -68 -80 -121 -140 -167 -191 -22 -25 -92 -107 -156
-181 -115 -135 -207 -241 -325 -377 -35 -40 -63 -75 -63 -79 0 -3 123 -139
272 -302 150 -162 332 -360 403 -438 72 -78 220 -240 331 -360 110 -121 278
-304 372 -408 l172 -189 0 -814 0 -813 891 0 891 0 202 -192 c110 -106 206
-197 212 -203 12 -11 348 -333 542 -520 63 -60 185 -178 271 -261 l155 -151
605 601 c333 331 668 665 747 743 l141 143 814 2 814 3 5 757 5 758 130 147
c72 81 158 177 191 213 34 36 79 86 100 111 51 61 363 411 379 424 6 6 33 35
59 65 75 86 194 217 276 305 41 44 111 121 155 170 44 49 149 163 232 252 84
89 153 166 153 171 0 4 -35 44 -77 87 -43 43 -88 92 -100 108 -12 16 -75 84
-140 151 -210 217 -610 638 -818 862 -5 6 -83 87 -172 180 -89 93 -194 202
-233 243 -39 41 -73 84 -76 96 -3 12 -4 394 -2 848 l3 827 -850 0 -850 0 -207
203 c-113 111 -329 321 -480 467 -266 258 -629 612 -714 698 -23 23 -46 42
-51 42 -4 0 -85 -76 -179 -168z"/>
<path d="M4925 7054 c-269 -40 -420 -83 -615 -178 -211 -104 -358 -206 -524
-366 -334 -322 -531 -725 -592 -1210 -47 -375 63 -837 284 -1191 139 -225 404
-492 608 -616 249 -151 497 -247 749 -289 122 -21 412 -24 535 -5 194 28 457
109 446 137 -3 7 -78 124 -168 261 -90 136 -193 294 -228 351 l-65 102 -45 -5
c-123 -14 -283 -17 -361 -6 -280 40 -557 212 -745 461 -44 58 -100 164 -134
252 -78 204 -79 541 -3 748 67 181 229 391 390 506 78 55 260 147 337 169 184
52 353 58 539 20 184 -38 384 -142 516 -268 193 -184 307 -395 342 -629 27
-182 4 -401 -57 -545 -20 -46 -34 -87 -32 -92 1 -6 82 -90 178 -188 96 -98
226 -233 289 -300 63 -68 117 -123 120 -123 3 0 25 35 48 78 24 42 49 88 57
102 70 121 135 305 196 550 37 152 38 516 1 690 -73 347 -206 632 -404 870
-116 139 -344 344 -456 410 -23 14 -59 36 -79 49 -39 25 -247 131 -258 131 -3
0 -47 15 -98 34 -50 19 -149 47 -221 62 -112 23 -157 27 -325 30 -107 1 -208
0 -225 -2z"/>
</g>
</svg>
